
<svg version="1.0" xmlns="http://www.w3.org/2000/svg"
 width="40" height="40" viewBox="0 0 616.000000 612.000000"
 preserveAspectRatio="xMidYMid meet">
<metadata>
Created by potrace 1.15, written by Peter Selinger 2001-2017
</metadata>
<g transform="translate(0.000000,612.000000) scale(0.100000,-0.100000)"
fill="#000000" stroke="none">
<path d="M1050 5904 c-349 -92 -521 -484 -348 -794 46 -81 86 -128 153 -175
120 -84 211 -110 356 -103 114 6 188 30 281 94 288 196 317 608 59 846 -136
126 -330 177 -501 132z"/>
<path d="M1769 5016 c-247 -145 -584 -347 -592 -355 -5 -5 8 -38 31 -78 56
-96 148 -308 192 -443 98 -295 142 -657 120 -965 -19 -270 -66 -497 -149 -720
-22 -60 -37 -113 -33 -117 4 -4 129 -59 277 -121 149 -63 319 -135 379 -161
60 -25 111 -45 113 -42 9 8 93 239 123 336 42 136 84 332 110 510 12 79 22
145 23 146 10 8 227 57 317 73 574 99 1137 1 1382 -240 44 -43 78 -87 95 -125
25 -53 28 -70 27 -159 0 -84 -5 -111 -28 -170 -168 -431 -772 -850 -1463
-1016 -234 -56 -345 -71 -568 -76 l-210 -5 0 -292 c-1 -219 -5 -321 -18 -411
-9 -65 -17 -126 -17 -133 0 -13 35 -14 228 -9 253 6 396 22 647 72 685 138
1323 467 1748 900 317 322 493 666 528 1031 36 366 -94 718 -366 989 -255 256
-639 431 -1096 500 -206 31 -616 36 -817 10 -109 -14 -249 -37 -314 -50 -103
-22 -105 -22 -113 28 -17 112 -82 364 -127 496 -79 234 -187 474 -288 643
l-16 27 -125 -73z"/>
</g>
</svg>
